# xmcd CD database file
#
# Track frame offsets:
#	150
#	15139
#	25909
#	32938
#	45583
#	56463
#	74179
#	85041
#	95940
#	106215
#	129121
#	143848
#	160508
#	171955
#	182714
#	200519
#	216721
#	234025
#	246460
#	259519
#	269096
#	278135
#	290009
#	304723
#
# Disc length: 4343 seconds
#
# Revision: 5
# Processed by: cddbd v1.5.1PL2 Copyright (c) Steve Scherf et al.
# Submitted via: CDex 1.51
#
DISCID=5f10f518
DTITLE=Various Artist - Trampska abeceda 1. dil - CD5 S-Z
DYEAR=2001
DGENRE=Country
TTITLE0=Stihly skuner
TTITLE1=Tahlo uz k veceru
TTITLE2=Taja
TTITLE3=Ted uz prijede tou dlouhou cestou k nam
TTITLE4=Trampove pirati
TTITLE5=Trampska mse
TTITLE6=Trapeni
TTITLE7=Tulacky kral
TTITLE8=Tulak
TTITLE9=Utah Carol
TTITLE10=Vandrak
TTITLE11=Venezuelana
TTITLE12=Vlajka
TTITLE13=Vlak pulnocni
TTITLE14=Vyprahla cesta
TTITLE15=Wigwam
TTITLE16=Zebra Dan
TTITLE17=Zeleny kruh
TTITLE18=Z Fortu Jerry
TTITLE19=Zhoupni se v sedle
TTITLE20=Zlata horecka
TTITLE21=Zlatokop Tom
TTITLE22=Zpev o trech nesmrtelnych
TTITLE23=Zalarni mriz
EXTD=YEAR: 2001
EXTT0=
EXTT1=
EXTT2=
EXTT3=
EXTT4=
EXTT5=
EXTT6=
EXTT7=
EXTT8=
EXTT9=
EXTT10=
EXTT11=
EXTT12=
EXTT13=
EXTT14=
EXTT15=
EXTT16=
EXTT17=
EXTT18=
EXTT19=
EXTT20=
EXTT21=
EXTT22=
EXTT23=
PLAYORDER=
